<?xml version="1.0" encoding="iso-8859-1"?>
<!-- Generator: Adobe Illustrator 17.0.0, SVG Export Plug-In . SVG Version: 6.00 Build 0)  -->
<!DOCTYPE svg PUBLIC "-//W3C//DTD SVG 1.1//EN" "http://www.w3.org/Graphics/SVG/1.1/DTD/svg11.dtd">
<svg version="1.1" xmlns="http://www.w3.org/2000/svg" xmlns:xlink="http://www.w3.org/1999/xlink" x="0px" y="0px"
	 width="800.073px" height="558.91px" viewBox="0 0 800.073 558.91" style="enable-background:new 0 0 800.073 558.91;"
	 xml:space="preserve">
<g id="city">
	<polyline style="fill:none;stroke:#FFFFFF;stroke-width:2;stroke-miterlimit:10;" points="100.942,538.785 100.942,501.078 
		129.798,501.078 129.798,538.785 	"/>
	<polyline style="fill:none;stroke:#FFFFFF;stroke-width:2;stroke-miterlimit:10;" points="145.04,324.044 145.04,291.854 
		172.778,291.854 172.778,324.044 	"/>
	<polyline style="fill:none;stroke:#FFFFFF;stroke-width:2;stroke-miterlimit:10;" points="172.778,324.044 172.778,299.762 
		193.701,299.762 193.701,324.044 	"/>
	<polyline style="fill:none;stroke:#FFFFFF;stroke-width:2;stroke-miterlimit:10;" points="179.742,558.91 179.742,506.079 
		207.661,506.079 207.661,558.91 	"/>
	<polyline style="fill:none;stroke:#FFFFFF;stroke-width:2;stroke-miterlimit:10;" points="268.154,542.675 268.154,503.073 
		301.494,503.073 301.494,542.675 	"/>
	<polyline style="fill:none;stroke:#FFFFFF;stroke-width:2;stroke-miterlimit:10;" points="1,389.623 1,350.083 35.071,350.083 
		35.071,389.623 	"/>
	<polyline style="fill:none;stroke:#FFFFFF;stroke-width:2;stroke-miterlimit:10;" points="216.392,469.989 216.392,423.42 
		256.52,423.42 256.52,469.989 	"/>
	<polyline style="fill:none;stroke:#FFFFFF;stroke-width:2;stroke-miterlimit:10;" points="124.891,405.956 124.891,371.209 
		154.832,371.209 154.832,405.956 	"/>
	<polyline style="fill:none;stroke:#FFFFFF;stroke-width:2;stroke-miterlimit:10;" points="108.7,458.947 108.7,434.462 
		129.798,434.462 129.798,458.947 	"/>
	<polyline style="fill:none;stroke:#FFFFFF;stroke-width:2;stroke-miterlimit:10;" points="129.798,458.947 129.798,434.462 
		150.897,434.462 150.897,458.947 	"/>
	<polyline style="fill:none;stroke:#FFFFFF;stroke-width:2;stroke-miterlimit:10;" points="655.268,372.935 655.268,348.527 
		676.299,348.527 676.299,372.935 	"/>
	<polyline style="fill:none;stroke:#FFFFFF;stroke-width:2;stroke-miterlimit:10;" points="686.614,450.69 686.614,406.502 
		707.645,406.502 707.645,450.69 	"/>
	<polyline style="fill:none;stroke:#FFFFFF;stroke-width:2;stroke-miterlimit:10;" points="296.083,269.33 296.083,249.042 
		313.565,249.042 313.565,269.33 	"/>
	<polyline style="fill:none;stroke:#FFFFFF;stroke-width:2;stroke-miterlimit:10;" points="231.008,273.56 231.008,253.633 
		248.179,253.633 248.179,273.56 	"/>
	<polyline style="fill:none;stroke:#FFFFFF;stroke-width:2;stroke-miterlimit:10;" points="268.76,320.455 268.76,289.46 
		295.469,289.46 295.469,320.455 	"/>
	<polyline style="fill:none;stroke:#FFFFFF;stroke-width:2;stroke-miterlimit:10;" points="90.438,346.731 90.438,315.736 
		117.147,315.736 117.147,346.731 	"/>
	<polyline style="fill:none;stroke:#FFFFFF;stroke-width:2;stroke-miterlimit:10;" points="258.728,253.633 258.728,230.348 
		278.792,230.348 278.792,253.633 	"/>
	<polyline style="fill:none;stroke:#FFFFFF;stroke-width:2;stroke-miterlimit:10;" points="329.721,259.186 329.721,237.377 
		348.513,237.377 348.513,259.186 	"/>
	<polyline style="fill:none;stroke:#FFFFFF;stroke-width:2;stroke-miterlimit:10;" points="27.3,469.989 27.3,436.225 
		56.394,436.225 56.394,469.989 	"/>
	<polyline style="fill:none;stroke:#FFFFFF;stroke-width:2;stroke-miterlimit:10;" points="247.088,394.493 247.088,347.925 
		287.217,347.925 287.217,394.493 	"/>
	<polyline style="fill:none;stroke:#FFFFFF;stroke-width:2;stroke-miterlimit:10;" points="321.1,446.705 321.1,400.136 
		361.229,400.136 361.229,446.705 	"/>
	<polyline style="fill:none;stroke:#FFFFFF;stroke-width:2;stroke-miterlimit:10;" points="474.091,266.725 474.091,246.445 
		491.566,246.445 491.566,266.725 	"/>
	<polyline style="fill:none;stroke:#FFFFFF;stroke-width:2;stroke-miterlimit:10;" points="491.566,266.725 491.566,246.445 
		509.041,246.445 509.041,266.725 	"/>
	<polyline style="fill:none;stroke:#FFFFFF;stroke-width:2;stroke-miterlimit:10;" points="507.025,311.386 507.025,287.461 
		527.642,287.461 527.642,311.386 	"/>
	<polyline style="fill:none;stroke:#FFFFFF;stroke-width:2;stroke-miterlimit:10;" points="544.72,287.694 544.72,263.768 
		565.336,263.768 565.336,287.694 	"/>
	<polyline style="fill:none;stroke:#FFFFFF;stroke-width:2;stroke-miterlimit:10;" points="588.415,305.267 588.415,284.971 
		605.904,284.971 605.904,305.267 	"/>
	<polyline style="fill:none;stroke:#FFFFFF;stroke-width:2;stroke-miterlimit:10;" points="750.539,305.152 750.539,284.856 
		768.027,284.856 768.027,305.152 	"/>
	<polyline style="fill:none;stroke:#FFFFFF;stroke-width:2;stroke-miterlimit:10;" points="784.429,293.357 784.429,276.362 
		799.073,276.362 799.073,293.357 	"/>
	<polyline style="fill:none;stroke:#FFFFFF;stroke-width:2;stroke-miterlimit:10;" points="720.329,360.82 720.329,335.029 
		742.554,335.029 742.554,360.82 	"/>
	<polyline style="stroke:#FFFFFF;stroke-width:2;stroke-miterlimit:10;" points="474.091,446.284 474.091,410.907 504.575,410.907 
		504.575,446.284 	"/>
	<polyline style="fill:none;stroke:#FFFFFF;stroke-width:2;stroke-miterlimit:10;" points="753.078,423.644 753.078,397.459 
		775.643,397.459 775.643,423.644 	"/>
	<polyline style="fill:none;stroke:#FFFFFF;stroke-width:2;stroke-miterlimit:10;" points="611.245,429.87 611.245,394.493 
		641.729,394.493 641.729,429.87 	"/>
	<polyline style="fill:none;stroke:#FFFFFF;stroke-width:2;stroke-miterlimit:10;" points="543.536,501.078 543.536,454.509 
		583.664,454.509 583.664,501.078 	"/>
	<polyline style="fill:none;stroke:#FFFFFF;stroke-width:2;stroke-miterlimit:10;" points="445.622,532.494 445.622,490.059 
		482.189,490.059 482.189,532.494 	"/>
	<polyline style="fill:none;stroke:#FFFFFF;stroke-width:2;stroke-miterlimit:10;" points="381.697,502.484 381.697,470.444 
		409.306,470.444 409.306,502.484 	"/>
	<polyline style="fill:none;stroke:#FFFFFF;stroke-width:2;stroke-miterlimit:10;" points="582.697,372.935 582.697,348.527 
		603.728,348.527 603.728,372.935 	"/>
	<polyline style="fill:none;stroke:#FFFFFF;stroke-width:2;stroke-miterlimit:10;" points="531.89,370.51 531.89,343.658 
		555.028,343.658 555.028,370.51 	"/>
	<path style="stroke:#FFFFFF;stroke-width:2;stroke-miterlimit:10;" d="M478.045,355.862c0,0-47.764-108.113-57.101-216.041
		c-1.321-15.267-3.639-105.289-3.966-118.155c-0.08-1.53-1.325-1.53-1.325-1.53h-18.159c0,0-1.336,0-1.306,1.243
		c-0.446,11.596-3.918,100.785-5.813,118.442c-11.988,111.673-57.101,216.041-57.101,216.041h44.655v-20.665
		c0-15.315,12.415-27.73,27.73-27.73c15.315,0,27.73,12.415,27.73,27.73v20.665H478.045z"/>
	
		<line style="fill:none;stroke:#FFFFFF;stroke-width:3;stroke-miterlimit:10;" x1="343.777" y1="281.341" x2="469.325" y2="281.341"/>
	
		<line style="fill:none;stroke:#FFFFFF;stroke-width:3;stroke-miterlimit:10;" x1="367.48" y1="211.744" x2="445.622" y2="211.744"/>
	<line style="fill:none;stroke:#FFFFFF;stroke-width:3;stroke-miterlimit:10;" x1="389.102" y1="32.21" x2="424.001" y2="32.21"/>
	<line style="fill:none;stroke:#FFFFFF;stroke-width:3;stroke-miterlimit:10;" x1="406.721" y1="20.136" x2="406.721" y2="0"/>
	<rect x="408.039" y="0" style="fill:#FFFFFF;" width="6.773" height="10.544"/>
	<rect x="408.039" y="7.029" style="fill:#182061;" width="6.773" height="3.515"/>
	<rect x="408.039" y="0" style="fill:#E71E26;" width="6.773" height="3.515"/>
	<g>
		<path style="fill:none;stroke:#FFFFFF;stroke-width:2;stroke-miterlimit:10;" d="M632.525,241.697c0,2.197,0,49.889,0,49.889
			v15.058h11.194h19.206v-20.906c0-8.671,10.544-17.457,19.214-17.457c8.671,0,18.336,8.786,18.336,17.457v20.906h27.515
			c0,0,0-62.952,0-65.203c0-2.599-2.772-2.445-2.772-2.445l-90.411-0.002C634.806,238.994,632.525,238.841,632.525,241.697z"/>
	</g>
	
		<line style="fill:none;stroke:#FFFFFF;stroke-width:2;stroke-miterlimit:10;" x1="632.525" y1="247.774" x2="727.99" y2="247.774"/>
	<line style="fill:none;stroke:#FFFFFF;stroke-width:2;stroke-miterlimit:10;" x1="633" y1="254.84" x2="728" y2="254.84"/>
	<path style="stroke:#FFFFFF;stroke-width:2;stroke-miterlimit:10;" d="M381.459,281.341c0,0,41.883,0,46.862,0
		c-9.665-31.37-16.072-69.597-16.072-69.597h-13.18C399.069,211.744,391.662,249.042,381.459,281.341z"/>
</g>
<g id="Layer_1">
</g>
</svg>
