<?xml version="1.0" encoding="iso-8859-1"?>
<!-- Generator: Adobe Illustrator 17.0.0, SVG Export Plug-In . SVG Version: 6.00 Build 0)  -->
<!DOCTYPE svg PUBLIC "-//W3C//DTD SVG 1.1//EN" "http://www.w3.org/Graphics/SVG/1.1/DTD/svg11.dtd">
<svg version="1.1" id="Layer_1" xmlns="http://www.w3.org/2000/svg" xmlns:xlink="http://www.w3.org/1999/xlink" x="0px" y="0px"
	 width="295.655px" height="75.478px" viewBox="0 0 295.655 75.478" style="enable-background:new 0 0 295.655 75.478;"
	 xml:space="preserve">
<g id="header">
	<g style="enable-background:new    ;">
		<path style="fill:#FFFFFF;" d="M12.638,42.057H7.724v15.656H5.618V13.695c0-1.124,0.421-1.194,2.106-1.194h5.967
			c10.882,0,19.026,3.09,19.026,13.901C32.717,37.143,23.801,42.057,12.638,42.057z M13.691,14.536H7.724v25.555h4.914
			c9.899,0,17.903-4.142,17.903-13.69C30.541,16.993,22.958,14.536,13.691,14.536z"/>
		<path style="fill:#FFFFFF;" d="M49.992,39.6l10.882-1.264l-0.211-3.371c-0.491-6.88-4.914-9.196-10.18-9.196
			c-3.581,0-6.529,0.912-9.337,2.387v-0.772c0-1.614,5.266-3.58,9.969-3.58c5.546,0,11.022,2.316,11.584,10.882l1.474,21.975
			c0.07,1.053-0.351,1.123-2.036,1.123l-0.843-12.286c-2.176,8.214-7.161,12.918-13.69,12.918c-6.038,0-9.197-4.353-9.197-9.338
			C38.408,43.673,42.128,40.584,49.992,39.6z M48.166,56.661c6.67,0,12.005-6.6,12.708-16.639l-10.601,1.333
			c-6.529,0.772-9.548,3.3-9.548,7.653C40.724,53.291,43.322,56.661,48.166,56.661z"/>
		<path style="fill:#FFFFFF;" d="M74.706,57.714V25.629c0-1.123,0.281-1.193,2.036-1.193v9.618c1.966-6.67,6.6-10.25,12.005-10.25
			c0.913,0,1.193,0.562,1.053,2.176c-7.652-0.351-12.848,5.617-13.058,14.814v16.92H74.706z"/>
		<path style="fill:#FFFFFF;" d="M98.508,14.818c-1.334,0-1.966-0.772-1.966-2.036c0-1.193,0.632-1.966,1.966-1.966
			c1.264,0,1.896,0.772,1.896,1.966C100.403,14.045,99.771,14.818,98.508,14.818z M97.384,57.714V25.629
			c0-1.123,0.281-1.193,2.036-1.193v33.278H97.384z"/>
		<path style="fill:#FFFFFF;" d="M118.026,58.416c-3.792,0-7.793-1.404-7.793-3.019v-0.843c2.317,1.193,5.055,1.825,7.723,1.825
			c4.493,0,8.706-2.036,8.706-6.6c0-9.337-18.253-4.493-18.253-16.569c0-4.634,3.65-9.407,11.022-9.407
			c6.178,0,10.11,3.65,10.11,7.863c0,1.123-0.492,1.544-1.264,1.544h-0.492v-0.843c0-3.58-3.159-6.599-8.425-6.599
			c-6.108,0-8.916,3.791-8.916,7.161c0,10.742,18.253,5.546,18.253,16.639C128.697,55.607,123.572,58.416,118.026,58.416z"/>
	</g>
	<g style="enable-background:new    ;">
		<path style="fill:#FFFFFF;" d="M151.867,57.714c-0.211-2.387,0.141-5.125,1.053-7.021c9.759-4.634,20.22-11.654,20.22-19.869
			c0-4.914-2.949-7.161-7.161-7.161c-4.774,0-7.091,3.3-7.091,6.67v1.474H156.5c-2.247,0-4.493-1.123-4.493-4.071
			c0-6.459,6.458-10.882,14.673-10.882c8.775,0,15.094,4.703,15.094,12.848c0,8.776-6.95,15.796-15.445,21.062h15.165v6.95H151.867z
			"/>
		<path style="fill:#FFFFFF;" d="M204.031,58.416c-11.443,0-16.287-10.461-16.287-22.045c0-11.584,4.773-19.517,16.287-19.517
			c11.374,0,16.218,7.933,16.218,19.517C220.248,47.955,215.264,58.416,204.031,58.416z M204.031,23.734
			c-5.405,0-7.512,4.493-7.512,12.777c0,8.285,2.247,15.025,7.512,15.025c5.266,0,7.513-6.74,7.513-15.025
			C211.543,28.227,209.437,23.734,204.031,23.734z"/>
		<path style="fill:#FFFFFF;" d="M238.434,58.416c-6.318,0-11.233-1.825-11.233-6.67v-2.316c2.879,1.334,6.249,2.387,10.11,2.387
			c4.493,0,8.284-1.966,8.284-5.827s-4.002-4.773-8.354-4.773h-3.229v-5.828h1.966c6.389,0,9.407-2.809,9.407-6.811
			c0-3.019-2.177-4.984-5.897-4.984c-4.282,0-6.178,2.668-6.178,5.406v1.334h-2.247c-2.176,0-4.423-1.193-4.423-3.932
			c0-6.179,6.318-9.548,13.831-9.548c7.863,0,13.76,4.071,13.76,10.53c0,4.493-2.737,7.934-7.161,9.97
			c4.493,1.264,7.231,4.001,7.231,8.706C254.3,54.414,246.648,58.416,238.434,58.416z"/>
		<path style="fill:#FFFFFF;" d="M266.94,57.714v-0.843c5.405-11.864,10.882-21.905,17.621-32.365h-21.623
			c0-4.774,0.07-6.95,2.948-6.95h27.731c0.281,2.246,0,4.984-0.702,6.81c-6.6,11.373-11.373,21.062-16.357,33.348H266.94z"/>
	</g>
</g>
<g id="Layer_1_1_">
</g>
</svg>
