<?xml version="1.0" encoding="iso-8859-1"?>
<!-- Generator: Adobe Illustrator 17.0.0, SVG Export Plug-In . SVG Version: 6.00 Build 0)  -->
<!DOCTYPE svg PUBLIC "-//W3C//DTD SVG 1.1//EN" "http://www.w3.org/Graphics/SVG/1.1/DTD/svg11.dtd">
<svg version="1.1" id="Layer_1" xmlns="http://www.w3.org/2000/svg" xmlns:xlink="http://www.w3.org/1999/xlink" x="0px" y="0px"
	 width="1662px" height="305px" viewBox="-5.914 -6.563 1662 305" style="enable-background:new -5.914 -6.563 1662 305;"
	 xml:space="preserve">
<symbol  id="New_Symbol_1" viewBox="-4 -4 8 8">
	<path style="fill:#FFFFFF;" d="M4,0c0-2.209-1.791-4-4-4s-4,1.791-4,4s1.791,4,4,4S4,2.209,4,0z"/>
</symbol>
<g id="Layer_1_1_">
</g>
<g id="midstars">
	<g>
		<g>
			
				<use xlink:href="#New_Symbol_1"  width="8" height="8" x="-4" y="-4" transform="matrix(0.1635 0 0 -0.1635 1045.2102 277.4147)" style="overflow:visible;"/>
			
				<use xlink:href="#New_Symbol_1"  width="8" height="8" x="-4" y="-4" transform="matrix(0.1626 0 0 -0.1626 1045.2051 291.2236)" style="overflow:visible;"/>
			
				<use xlink:href="#New_Symbol_1"  width="8" height="8" x="-4" y="-4" transform="matrix(0.2097 0 0 -0.2097 1063.5033 226.3412)" style="overflow:visible;"/>
			
				<use xlink:href="#New_Symbol_1"  width="8" height="8" x="-4" y="-4" transform="matrix(0.1484 0 0 -0.1484 1080.0481 271.0269)" style="overflow:visible;"/>
			
				<use xlink:href="#New_Symbol_1"  width="8" height="8" x="-4" y="-4" transform="matrix(0.2486 0 0 -0.2486 1117.2697 248.4979)" style="overflow:visible;"/>
			
				<use xlink:href="#New_Symbol_1"  width="8" height="8" x="-4" y="-4" transform="matrix(0.3074 0 0 -0.3074 1120.4574 264.7929)" style="overflow:visible;"/>
			
				<use xlink:href="#New_Symbol_1"  width="8" height="8" x="-4" y="-4" transform="matrix(0.2518 0 0 -0.2518 1122.0035 221.9264)" style="overflow:visible;"/>
			
				<use xlink:href="#New_Symbol_1"  width="8" height="8" x="-4" y="-4" transform="matrix(0.2711 0 0 -0.2711 1124.078 213.0854)" style="overflow:visible;"/>
			
				<use xlink:href="#New_Symbol_1"  width="8" height="8" x="-4" y="-4" transform="matrix(0.2962 0 0 -0.2962 1102.6372 192.513)" style="overflow:visible;"/>
			
				<use xlink:href="#New_Symbol_1"  width="8" height="8" x="-4" y="-4" transform="matrix(0.1752 0 0 -0.1752 1097.9355 222.4876)" style="overflow:visible;"/>
			
				<use xlink:href="#New_Symbol_1"  width="8" height="8" x="-4" y="-4" transform="matrix(0.3952 0 0 -0.3952 1176.4427 124.8023)" style="overflow:visible;"/>
			
				<use xlink:href="#New_Symbol_1"  width="8" height="8" x="-4" y="-4" transform="matrix(0.4745 0 0 -0.4745 1184.5234 198.8508)" style="overflow:visible;"/>
			
				<use xlink:href="#New_Symbol_1"  width="8" height="8" x="-4" y="-4" transform="matrix(0.3205 0 0 -0.3205 1190.3119 55.7534)" style="overflow:visible;"/>
			
				<use xlink:href="#New_Symbol_1"  width="8" height="8" x="-4" y="-4" transform="matrix(0.3063 0 0 -0.3063 1130.6863 208.2477)" style="overflow:visible;"/>
			
				<use xlink:href="#New_Symbol_1"  width="8" height="8" x="-4" y="-4" transform="matrix(0.7609 0 0 -0.7609 1215.6929 265.2952)" style="overflow:visible;"/>
			
				<use xlink:href="#New_Symbol_1"  width="8" height="8" x="-4" y="-4" transform="matrix(0.5616 0 0 -0.5616 1250.0732 225.9278)" style="overflow:visible;"/>
			
				<use xlink:href="#New_Symbol_1"  width="8" height="8" x="-4" y="-4" transform="matrix(0.4685 0 0 -0.4685 1258.1021 191.5009)" style="overflow:visible;"/>
			
				<use xlink:href="#New_Symbol_1"  width="8" height="8" x="-4" y="-4" transform="matrix(0.3471 0 0 -0.3471 1255.4514 136.3894)" style="overflow:visible;"/>
			
				<use xlink:href="#New_Symbol_1"  width="8" height="8" x="-4" y="-4" transform="matrix(0.3757 0 0 -0.3757 1257.8843 163.3086)" style="overflow:visible;"/>
			
				<use xlink:href="#New_Symbol_1"  width="8" height="8" x="-4" y="-4" transform="matrix(0.0973 0 0 -0.0973 1390.491 62.2973)" style="overflow:visible;"/>
			
				<use xlink:href="#New_Symbol_1"  width="8" height="8" x="-4" y="-4" transform="matrix(0.2298 0 0 -0.2298 1323.9937 187.6208)" style="overflow:visible;"/>
			
				<use xlink:href="#New_Symbol_1"  width="8" height="8" x="-4" y="-4" transform="matrix(0.1099 0 0 -0.1099 1351.653 63.1563)" style="overflow:visible;"/>
			
				<use xlink:href="#New_Symbol_1"  width="8" height="8" x="-4" y="-4" transform="matrix(0.1866 0 0 -0.1866 1402.516 177.4196)" style="overflow:visible;"/>
			
				<use xlink:href="#New_Symbol_1"  width="8" height="8" x="-4" y="-4" transform="matrix(0.2986 0 0 -0.2986 1379.2274 18.6865)" style="overflow:visible;"/>
			
				<use xlink:href="#New_Symbol_1"  width="8" height="8" x="-4" y="-4" transform="matrix(0.3577 0 0 -0.3577 1210.2782 151.7712)" style="overflow:visible;"/>
			
				<use xlink:href="#New_Symbol_1"  width="8" height="8" x="-4" y="-4" transform="matrix(0.2469 0 0 -0.2469 1292.564 139.2936)" style="overflow:visible;"/>
			
				<use xlink:href="#New_Symbol_1"  width="8" height="8" x="-4" y="-4" transform="matrix(0.1875 0 0 -0.1875 1357.1283 126.8055)" style="overflow:visible;"/>
			
				<use xlink:href="#New_Symbol_1"  width="8" height="8" x="-4" y="-4" transform="matrix(0.3011 0 0 -0.3011 1460.8668 159.2313)" style="overflow:visible;"/>
			
				<use xlink:href="#New_Symbol_1"  width="8" height="8" x="-4" y="-4" transform="matrix(0.1794 0 0 -0.1794 1438.1859 106.9018)" style="overflow:visible;"/>
			
				<use xlink:href="#New_Symbol_1"  width="8" height="8" x="-4" y="-4" transform="matrix(0.3918 0 0 -0.3918 1487.4794 115.8861)" style="overflow:visible;"/>
			
				<use xlink:href="#New_Symbol_1"  width="8" height="8" x="-4" y="-4" transform="matrix(0.6199 0 0 -0.6199 1481.9471 22.2933)" style="overflow:visible;"/>
			
				<use xlink:href="#New_Symbol_1"  width="8" height="8" x="-4" y="-4" transform="matrix(0.4149 0 0 -0.4149 1520.8849 69.8141)" style="overflow:visible;"/>
			
				<use xlink:href="#New_Symbol_1"  width="8" height="8" x="-4" y="-4" transform="matrix(0.4669 0 0 -0.4669 1543.6324 31.3521)" style="overflow:visible;"/>
			
				<use xlink:href="#New_Symbol_1"  width="8" height="8" x="-4" y="-4" transform="matrix(0.3717 0 0 -0.3717 1576.7594 97.3133)" style="overflow:visible;"/>
			
				<use xlink:href="#New_Symbol_1"  width="8" height="8" x="-4" y="-4" transform="matrix(0.4457 0 0 -0.4457 1610.0939 70.3609)" style="overflow:visible;"/>
			
				<use xlink:href="#New_Symbol_1"  width="8" height="8" x="-4" y="-4" transform="matrix(0.5197 0 0 -0.5197 1604.5406 48.3459)" style="overflow:visible;"/>
			
				<use xlink:href="#New_Symbol_1"  width="8" height="8" x="-4" y="-4" transform="matrix(0.486 0 0 -0.486 1584.3912 43.3135)" style="overflow:visible;"/>
			
				<use xlink:href="#New_Symbol_1"  width="8" height="8" x="-4" y="-4" transform="matrix(0.7367 0 0 -0.7367 1632.825 52.3998)" style="overflow:visible;"/>
			
				<use xlink:href="#New_Symbol_1"  width="8" height="8" x="-4" y="-4" transform="matrix(0.2205 0 0 -0.2205 1650.29 0.882)" style="overflow:visible;"/>
		</g>
		<g>
			
				<use xlink:href="#New_Symbol_1"  width="8" height="8" x="-4" y="-4" transform="matrix(-0.1635 0 0 0.1635 605.9619 14.4592)" style="overflow:visible;"/>
			
				<use xlink:href="#New_Symbol_1"  width="8" height="8" x="-4" y="-4" transform="matrix(-0.1626 0 0 0.1626 605.9671 0.6503)" style="overflow:visible;"/>
			
				<use xlink:href="#New_Symbol_1"  width="8" height="8" x="-4" y="-4" transform="matrix(-0.2097 0 0 0.2097 587.6689 65.5327)" style="overflow:visible;"/>
			
				<use xlink:href="#New_Symbol_1"  width="8" height="8" x="-4" y="-4" transform="matrix(-0.1484 0 0 0.1484 571.1241 20.8471)" style="overflow:visible;"/>
			
				<use xlink:href="#New_Symbol_1"  width="8" height="8" x="-4" y="-4" transform="matrix(-0.2486 0 0 0.2486 533.9024 43.3761)" style="overflow:visible;"/>
			
				<use xlink:href="#New_Symbol_1"  width="8" height="8" x="-4" y="-4" transform="matrix(-0.3074 0 0 0.3074 530.7147 27.0811)" style="overflow:visible;"/>
			
				<use xlink:href="#New_Symbol_1"  width="8" height="8" x="-4" y="-4" transform="matrix(-0.2518 0 0 0.2518 529.1685 69.9475)" style="overflow:visible;"/>
			
				<use xlink:href="#New_Symbol_1"  width="8" height="8" x="-4" y="-4" transform="matrix(-0.2711 0 0 0.2711 527.0941 78.7885)" style="overflow:visible;"/>
			
				<use xlink:href="#New_Symbol_1"  width="8" height="8" x="-4" y="-4" transform="matrix(-0.2962 0 0 0.2962 548.5349 99.361)" style="overflow:visible;"/>
			
				<use xlink:href="#New_Symbol_1"  width="8" height="8" x="-4" y="-4" transform="matrix(-0.1752 0 0 0.1752 553.2366 69.3863)" style="overflow:visible;"/>
			
				<use xlink:href="#New_Symbol_1"  width="8" height="8" x="-4" y="-4" transform="matrix(-0.3952 0 0 0.3952 474.7293 167.0717)" style="overflow:visible;"/>
			
				<use xlink:href="#New_Symbol_1"  width="8" height="8" x="-4" y="-4" transform="matrix(-0.4745 0 0 0.4745 466.6487 93.0232)" style="overflow:visible;"/>
			
				<use xlink:href="#New_Symbol_1"  width="8" height="8" x="-4" y="-4" transform="matrix(-0.3205 0 0 0.3205 460.8602 236.1205)" style="overflow:visible;"/>
			
				<use xlink:href="#New_Symbol_1"  width="8" height="8" x="-4" y="-4" transform="matrix(-0.3063 0 0 0.3063 520.4858 83.6262)" style="overflow:visible;"/>
			
				<use xlink:href="#New_Symbol_1"  width="8" height="8" x="-4" y="-4" transform="matrix(-0.7609 0 0 0.7609 435.4792 26.5787)" style="overflow:visible;"/>
			
				<use xlink:href="#New_Symbol_1"  width="8" height="8" x="-4" y="-4" transform="matrix(-0.5616 0 0 0.5616 401.0988 65.9461)" style="overflow:visible;"/>
			
				<use xlink:href="#New_Symbol_1"  width="8" height="8" x="-4" y="-4" transform="matrix(-0.4685 0 0 0.4685 393.0701 100.373)" style="overflow:visible;"/>
			
				<use xlink:href="#New_Symbol_1"  width="8" height="8" x="-4" y="-4" transform="matrix(-0.3471 0 0 0.3471 395.7207 155.4845)" style="overflow:visible;"/>
			
				<use xlink:href="#New_Symbol_1"  width="8" height="8" x="-4" y="-4" transform="matrix(-0.3757 0 0 0.3757 393.2879 128.5653)" style="overflow:visible;"/>
			
				<use xlink:href="#New_Symbol_1"  width="8" height="8" x="-4" y="-4" transform="matrix(-0.0973 0 0 0.0973 260.6812 229.5766)" style="overflow:visible;"/>
			
				<use xlink:href="#New_Symbol_1"  width="8" height="8" x="-4" y="-4" transform="matrix(-0.2298 0 0 0.2298 327.1785 104.2532)" style="overflow:visible;"/>
			
				<use xlink:href="#New_Symbol_1"  width="8" height="8" x="-4" y="-4" transform="matrix(-0.1099 0 0 0.1099 299.5192 228.7177)" style="overflow:visible;"/>
			
				<use xlink:href="#New_Symbol_1"  width="8" height="8" x="-4" y="-4" transform="matrix(-0.1866 0 0 0.1866 248.6561 114.4544)" style="overflow:visible;"/>
			
				<use xlink:href="#New_Symbol_1"  width="8" height="8" x="-4" y="-4" transform="matrix(-0.2986 0 0 0.2986 271.9447 273.1874)" style="overflow:visible;"/>
			
				<use xlink:href="#New_Symbol_1"  width="8" height="8" x="-4" y="-4" transform="matrix(-0.3577 0 0 0.3577 440.8939 140.1028)" style="overflow:visible;"/>
			
				<use xlink:href="#New_Symbol_1"  width="8" height="8" x="-4" y="-4" transform="matrix(-0.2469 0 0 0.2469 358.6081 152.5803)" style="overflow:visible;"/>
			
				<use xlink:href="#New_Symbol_1"  width="8" height="8" x="-4" y="-4" transform="matrix(-0.1875 0 0 0.1875 294.0438 165.0685)" style="overflow:visible;"/>
			
				<use xlink:href="#New_Symbol_1"  width="8" height="8" x="-4" y="-4" transform="matrix(-0.3011 0 0 0.3011 190.3053 132.6427)" style="overflow:visible;"/>
			
				<use xlink:href="#New_Symbol_1"  width="8" height="8" x="-4" y="-4" transform="matrix(-0.1794 0 0 0.1794 212.9862 184.9722)" style="overflow:visible;"/>
			
				<use xlink:href="#New_Symbol_1"  width="8" height="8" x="-4" y="-4" transform="matrix(-0.3918 0 0 0.3918 163.6927 175.9878)" style="overflow:visible;"/>
			
				<use xlink:href="#New_Symbol_1"  width="8" height="8" x="-4" y="-4" transform="matrix(-0.6199 0 0 0.6199 169.225 269.5806)" style="overflow:visible;"/>
			
				<use xlink:href="#New_Symbol_1"  width="8" height="8" x="-4" y="-4" transform="matrix(-0.4149 0 0 0.4149 130.2872 222.0599)" style="overflow:visible;"/>
			
				<use xlink:href="#New_Symbol_1"  width="8" height="8" x="-4" y="-4" transform="matrix(-0.4669 0 0 0.4669 107.5397 260.5219)" style="overflow:visible;"/>
			
				<use xlink:href="#New_Symbol_1"  width="8" height="8" x="-4" y="-4" transform="matrix(-0.3717 0 0 0.3717 74.4126 194.5606)" style="overflow:visible;"/>
			
				<use xlink:href="#New_Symbol_1"  width="8" height="8" x="-4" y="-4" transform="matrix(-0.4457 0 0 0.4457 41.0782 221.5131)" style="overflow:visible;"/>
			
				<use xlink:href="#New_Symbol_1"  width="8" height="8" x="-4" y="-4" transform="matrix(-0.5197 0 0 0.5197 46.6314 243.528)" style="overflow:visible;"/>
			
				<use xlink:href="#New_Symbol_1"  width="8" height="8" x="-4" y="-4" transform="matrix(-0.486 0 0 0.486 66.7809 248.5604)" style="overflow:visible;"/>
			
				<use xlink:href="#New_Symbol_1"  width="8" height="8" x="-4" y="-4" transform="matrix(-0.7367 0 0 0.7367 18.3472 239.4742)" style="overflow:visible;"/>
			
				<use xlink:href="#New_Symbol_1"  width="8" height="8" x="-4" y="-4" transform="matrix(-0.2205 0 0 0.2205 0.882 290.9919)" style="overflow:visible;"/>
		</g>
		<g>
			
				<use xlink:href="#New_Symbol_1"  width="8" height="8" x="-4" y="-4" transform="matrix(0.1635 0 0 -0.1635 541.5048 277.4147)" style="overflow:visible;"/>
			
				<use xlink:href="#New_Symbol_1"  width="8" height="8" x="-4" y="-4" transform="matrix(0.1626 0 0 -0.1626 541.4996 291.2236)" style="overflow:visible;"/>
			
				<use xlink:href="#New_Symbol_1"  width="8" height="8" x="-4" y="-4" transform="matrix(0.2097 0 0 -0.2097 559.7979 226.3412)" style="overflow:visible;"/>
			
				<use xlink:href="#New_Symbol_1"  width="8" height="8" x="-4" y="-4" transform="matrix(0.1484 0 0 -0.1484 576.3427 271.0269)" style="overflow:visible;"/>
			
				<use xlink:href="#New_Symbol_1"  width="8" height="8" x="-4" y="-4" transform="matrix(0.2486 0 0 -0.2486 613.5643 248.4979)" style="overflow:visible;"/>
			
				<use xlink:href="#New_Symbol_1"  width="8" height="8" x="-4" y="-4" transform="matrix(0.3074 0 0 -0.3074 616.752 264.7929)" style="overflow:visible;"/>
			
				<use xlink:href="#New_Symbol_1"  width="8" height="8" x="-4" y="-4" transform="matrix(0.2518 0 0 -0.2518 618.2982 221.9264)" style="overflow:visible;"/>
			
				<use xlink:href="#New_Symbol_1"  width="8" height="8" x="-4" y="-4" transform="matrix(0.2711 0 0 -0.2711 620.3726 213.0854)" style="overflow:visible;"/>
			
				<use xlink:href="#New_Symbol_1"  width="8" height="8" x="-4" y="-4" transform="matrix(0.2962 0 0 -0.2962 598.9318 192.513)" style="overflow:visible;"/>
			
				<use xlink:href="#New_Symbol_1"  width="8" height="8" x="-4" y="-4" transform="matrix(0.1752 0 0 -0.1752 594.2301 222.4876)" style="overflow:visible;"/>
			
				<use xlink:href="#New_Symbol_1"  width="8" height="8" x="-4" y="-4" transform="matrix(0.3952 0 0 -0.3952 672.7374 124.8023)" style="overflow:visible;"/>
			
				<use xlink:href="#New_Symbol_1"  width="8" height="8" x="-4" y="-4" transform="matrix(0.4745 0 0 -0.4745 680.8181 198.8508)" style="overflow:visible;"/>
			
				<use xlink:href="#New_Symbol_1"  width="8" height="8" x="-4" y="-4" transform="matrix(0.3205 0 0 -0.3205 686.6064 55.7534)" style="overflow:visible;"/>
			
				<use xlink:href="#New_Symbol_1"  width="8" height="8" x="-4" y="-4" transform="matrix(0.3063 0 0 -0.3063 626.9809 208.2477)" style="overflow:visible;"/>
			
				<use xlink:href="#New_Symbol_1"  width="8" height="8" x="-4" y="-4" transform="matrix(0.7609 0 0 -0.7609 711.9875 265.2952)" style="overflow:visible;"/>
			
				<use xlink:href="#New_Symbol_1"  width="8" height="8" x="-4" y="-4" transform="matrix(0.5616 0 0 -0.5616 746.3679 225.9278)" style="overflow:visible;"/>
			
				<use xlink:href="#New_Symbol_1"  width="8" height="8" x="-4" y="-4" transform="matrix(0.4685 0 0 -0.4685 754.3966 191.5009)" style="overflow:visible;"/>
			
				<use xlink:href="#New_Symbol_1"  width="8" height="8" x="-4" y="-4" transform="matrix(0.3471 0 0 -0.3471 751.746 136.3894)" style="overflow:visible;"/>
			
				<use xlink:href="#New_Symbol_1"  width="8" height="8" x="-4" y="-4" transform="matrix(0.3757 0 0 -0.3757 754.1788 163.3086)" style="overflow:visible;"/>
			
				<use xlink:href="#New_Symbol_1"  width="8" height="8" x="-4" y="-4" transform="matrix(0.0973 0 0 -0.0973 886.7856 62.2973)" style="overflow:visible;"/>
			
				<use xlink:href="#New_Symbol_1"  width="8" height="8" x="-4" y="-4" transform="matrix(0.2298 0 0 -0.2298 820.2883 187.6208)" style="overflow:visible;"/>
			
				<use xlink:href="#New_Symbol_1"  width="8" height="8" x="-4" y="-4" transform="matrix(0.1099 0 0 -0.1099 847.9476 63.1563)" style="overflow:visible;"/>
			
				<use xlink:href="#New_Symbol_1"  width="8" height="8" x="-4" y="-4" transform="matrix(0.1866 0 0 -0.1866 898.8107 177.4196)" style="overflow:visible;"/>
			
				<use xlink:href="#New_Symbol_1"  width="8" height="8" x="-4" y="-4" transform="matrix(0.2986 0 0 -0.2986 875.522 18.6865)" style="overflow:visible;"/>
			
				<use xlink:href="#New_Symbol_1"  width="8" height="8" x="-4" y="-4" transform="matrix(0.3577 0 0 -0.3577 706.5729 151.7712)" style="overflow:visible;"/>
			
				<use xlink:href="#New_Symbol_1"  width="8" height="8" x="-4" y="-4" transform="matrix(0.2469 0 0 -0.2469 788.8586 139.2936)" style="overflow:visible;"/>
			
				<use xlink:href="#New_Symbol_1"  width="8" height="8" x="-4" y="-4" transform="matrix(0.1875 0 0 -0.1875 853.4229 126.8055)" style="overflow:visible;"/>
			
				<use xlink:href="#New_Symbol_1"  width="8" height="8" x="-4" y="-4" transform="matrix(0.3011 0 0 -0.3011 957.1614 159.2313)" style="overflow:visible;"/>
			
				<use xlink:href="#New_Symbol_1"  width="8" height="8" x="-4" y="-4" transform="matrix(0.1794 0 0 -0.1794 934.4805 106.9018)" style="overflow:visible;"/>
			
				<use xlink:href="#New_Symbol_1"  width="8" height="8" x="-4" y="-4" transform="matrix(0.3918 0 0 -0.3918 983.774 115.8861)" style="overflow:visible;"/>
			
				<use xlink:href="#New_Symbol_1"  width="8" height="8" x="-4" y="-4" transform="matrix(0.6199 0 0 -0.6199 978.2418 22.2933)" style="overflow:visible;"/>
			
				<use xlink:href="#New_Symbol_1"  width="8" height="8" x="-4" y="-4" transform="matrix(0.4149 0 0 -0.4149 1017.1794 69.8141)" style="overflow:visible;"/>
			
				<use xlink:href="#New_Symbol_1"  width="8" height="8" x="-4" y="-4" transform="matrix(0.4669 0 0 -0.4669 1039.927 31.3521)" style="overflow:visible;"/>
			
				<use xlink:href="#New_Symbol_1"  width="8" height="8" x="-4" y="-4" transform="matrix(0.3717 0 0 -0.3717 1073.0541 97.3133)" style="overflow:visible;"/>
			
				<use xlink:href="#New_Symbol_1"  width="8" height="8" x="-4" y="-4" transform="matrix(0.4457 0 0 -0.4457 1106.3884 70.3609)" style="overflow:visible;"/>
			
				<use xlink:href="#New_Symbol_1"  width="8" height="8" x="-4" y="-4" transform="matrix(0.5197 0 0 -0.5197 1100.8353 48.3459)" style="overflow:visible;"/>
			
				<use xlink:href="#New_Symbol_1"  width="8" height="8" x="-4" y="-4" transform="matrix(0.486 0 0 -0.486 1080.6858 43.3135)" style="overflow:visible;"/>
			
				<use xlink:href="#New_Symbol_1"  width="8" height="8" x="-4" y="-4" transform="matrix(0.7367 0 0 -0.7367 1129.1195 52.3998)" style="overflow:visible;"/>
			
				<use xlink:href="#New_Symbol_1"  width="8" height="8" x="-4" y="-4" transform="matrix(0.2205 0 0 -0.2205 1146.5847 0.882)" style="overflow:visible;"/>
		</g>
	</g>
</g>
</svg>
