<?xml version="1.0" encoding="iso-8859-1"?>
<!-- Generator: Adobe Illustrator 17.0.0, SVG Export Plug-In . SVG Version: 6.00 Build 0)  -->
<!DOCTYPE svg PUBLIC "-//W3C//DTD SVG 1.1//EN" "http://www.w3.org/Graphics/SVG/1.1/DTD/svg11.dtd">
<svg version="1.1" xmlns="http://www.w3.org/2000/svg" xmlns:xlink="http://www.w3.org/1999/xlink" x="0px" y="0px"
	 width="124.712px" height="31.688px" viewBox="0 0 124.712 31.688" style="enable-background:new 0 0 124.712 31.688;"
	 xml:space="preserve">
<g id="pketh">
	<g>
		<path style="fill:#D59229;" d="M24.353,1.957c9.435,0.471,12.81,4.024,12.81,8.376c0,7.36-10.068,13.234-18.555,13.488
			c-2.583,5.039-6.905,7.868-12.704,7.868C2.266,31.688,0,30.237,0,28.06c0-1.449,1.793-2.791,3.69-2.863
			c1.107,0.834,2.214,1.343,3.215,1.343c1.687,0,3.005-1.741,4.375-5.15c1.687-4.241,3.584-10.187,4.902-13.959
			c-3.005,0.363-6.009,1.306-7.485,2.248c-1.159,0-2.425-0.653-2.425-1.922c0-2.357,4.902-4.931,11.966-5.656
			C18.661,0.905,21.084,0,22.772,0C24.247,0,24.353,0.29,24.353,1.957z M22.877,7.468c-0.527,3.046-1.476,7.759-2.635,11.857
			c0.263,0.036,0.58,0.036,0.738,0.036c4.587,0,7.907-3.518,7.907-7.433C28.886,9.897,27.674,8.086,22.877,7.468z"/>
		<path style="fill:#D59229;" d="M48.547,1.739c2.267,0,3.69,0.725,3.69,2.575c0,1.596-1.159,3.625-5.008,8.775
			c-1.159,1.596-2.319,3.951-2.636,5.511l3.532-1.015c0.527-0.762,1.159-1.559,1.845-2.211c2.371-2.248,3.901-2.974,5.325-2.974
			c2.583,0,3.795,1.451,3.795,2.827c0,1.668-0.632,2.031-6.063,3.879c0,3.917,0.527,5.258,1.793,5.258
			c1.372,0,3.48-1.559,7.17-5.222c1.001,0,2.055,0.399,2.055,1.124c0,2.103-8.117,8.883-12.967,8.883
			c-3.374,0-4.692-1.559-4.692-5.618c0-0.908,0.106-1.851,0.263-2.649l-2.371,0.653c-0.211,1.632-0.317,3.19-0.369,6.274
			c-0.58,0.434-1.581,0.691-2.794,0.691c-3.057,0-5.323-1.922-5.377-3.808c0-1.124,0.421-2.43,1.739-3.989
			C39.69,7.141,41.956,1.739,48.547,1.739z"/>
		<path style="fill:#D59229;" d="M60.037,22.478c0-5.474,6.482-11.058,11.597-11.058c3.638,0,5.638,1.197,5.638,3.735
			c0,3.046-2.583,5.402-9.804,6.526c0,1.632,0.475,2.539,2.529,2.539c3.584,0,8.223-2.103,11.228-5.258
			c1.266,0.036,2.004,0.618,2.004,1.198c0,2.682-8.803,8.447-15.656,8.447C62.408,28.607,60.037,26.395,60.037,22.478z
			 M70.315,15.227c-0.74,0-2.162,1.233-2.531,3.772c2.953-0.363,3.584-1.487,3.584-2.575C71.369,15.662,70.948,15.227,70.315,15.227
			z"/>
		<path style="fill:#D59229;" d="M82.228,16.242c-1.056-0.073-1.952-0.145-1.952-0.943c0-1.123,1.16-2.138,3.322-2.174
			c0.052-0.762,0.104-1.342,0.315-2.684c0.475-3.19,3.321-5.474,6.906-5.474c2.423,0,3.532,0.58,3.532,2.138
			c0,1.124-0.634,1.995-3.428,5.837c1.635-0.036,3.847-0.145,4.533-0.254c0.632,0.326,1.001,0.979,1.001,1.523
			c0,1.378-1.317,2.43-3.056,2.43c-1.213,0-2.319-0.036-3.847-0.218c-1.422,3.988-1.845,6.018-1.845,6.562
			c0,0.872,0.315,1.269,1.422,1.269c2.162,0,5.799-1.741,9.383-5.221c1.001,0,2.108,0.506,2.108,1.231
			c0,2.14-8.064,8.63-14.128,8.63c-4.059,0-6.799-1.451-6.799-4.785C79.696,23.058,80.222,20.848,82.228,16.242z"/>
		<path style="fill:#D59229;" d="M109.11,1.739c2.267,0,3.426,0.725,3.426,2.575c0,1.596-1.159,3.699-5.271,8.376l-1.266,3.407
			c3.795-2.394,7.064-3.552,9.118-3.552c2.004,0,3.057,0.87,3.057,2.14c0,1.124-0.475,2.248-1.266,3.625
			c-0.896,1.594-2.635,4.533-2.635,5.438c0,0.4,0.263,0.546,0.738,0.546c0.949,0,4.218-1.777,7.644-5.15
			c1.001,0,2.056,0.471,2.056,1.197c0,2.283-8.961,8.631-13.811,8.631c-3.111,0-4.164-0.944-4.164-2.937
			c0-2.394,2.74-6.562,2.74-7.36c0-0.29-0.159-0.58-0.74-0.58c-0.896,0-2.162,0.397-3.584,1.233
			c-0.527,2.575-0.896,5.293-0.949,8.666c-0.475,0.361-1.37,0.508-2.425,0.508c-3.056,0-5.323-1.922-5.375-3.808
			c0-1.124,0.421-2.43,1.739-3.989C100.2,7.468,102.363,1.739,109.11,1.739z"/>
	</g>
</g>
<g id="Layer_1">
</g>
</svg>
