<?xml version="1.0" encoding="iso-8859-1"?>
<!-- Generator: Adobe Illustrator 17.0.0, SVG Export Plug-In . SVG Version: 6.00 Build 0)  -->
<!DOCTYPE svg PUBLIC "-//W3C//DTD SVG 1.1//EN" "http://www.w3.org/Graphics/SVG/1.1/DTD/svg11.dtd">
<svg version="1.1" id="Layer_1" xmlns="http://www.w3.org/2000/svg" xmlns:xlink="http://www.w3.org/1999/xlink" x="0px" y="0px"
	 width="643.468px" height="446.771px" viewBox="0 0 643.468 446.771" style="enable-background:new 0 0 643.468 446.771;"
	 xml:space="preserve">
<symbol  id="New_Symbol_2" viewBox="-1 -1 2 2">
	<path style="fill:#FFFFFF;" d="M1,0c0-0.552-0.448-1-1-1s-1,0.448-1,1s0.448,1,1,1S1,0.552,1,0z"/>
</symbol>
<g>
	
		<use xlink:href="#New_Symbol_2"  width="2" height="2" x="-1" y="-1" transform="matrix(1 0 0 -1 235.0643 1)" style="overflow:visible;"/>
	
		<use xlink:href="#New_Symbol_2"  width="2" height="2" x="-1" y="-1" transform="matrix(1 0 0 -1 178.9872 72.0978)" style="overflow:visible;"/>
	
		<use xlink:href="#New_Symbol_2"  width="2" height="2" x="-1" y="-1" transform="matrix(1 0 0 -1 126.6306 327.2709)" style="overflow:visible;"/>
	
		<use xlink:href="#New_Symbol_2"  width="2" height="2" x="-1" y="-1" transform="matrix(1 0 0 -1 252.1142 410.535)" style="overflow:visible;"/>
	
		<use xlink:href="#New_Symbol_2"  width="2" height="2" x="-1" y="-1" transform="matrix(1 0 0 -1 390.2909 171.3625)" style="overflow:visible;"/>
	
		<use xlink:href="#New_Symbol_2"  width="2" height="2" x="-1" y="-1" transform="matrix(1 0 0 -1 274.2834 87.5098)" style="overflow:visible;"/>
	
		<use xlink:href="#New_Symbol_2"  width="2" height="2" x="-1" y="-1" transform="matrix(1 0 0 -1 189.8481 336.5449)" style="overflow:visible;"/>
	
		<use xlink:href="#New_Symbol_2"  width="2" height="2" x="-1" y="-1" transform="matrix(1 0 0 -1 452.9116 309.6121)" style="overflow:visible;"/>
	
		<use xlink:href="#New_Symbol_2"  width="2" height="2" x="-1" y="-1" transform="matrix(1 0 0 -1 309.8367 7.9139)" style="overflow:visible;"/>
	
		<use xlink:href="#New_Symbol_2"  width="2" height="2" x="-1" y="-1" transform="matrix(1 0 0 -1 223.4126 335.0017)" style="overflow:visible;"/>
	
		<use xlink:href="#New_Symbol_2"  width="2" height="2" x="-1" y="-1" transform="matrix(1 0 0 -1 397.1241 329.2127)" style="overflow:visible;"/>
	
		<use xlink:href="#New_Symbol_2"  width="2" height="2" x="-1" y="-1" transform="matrix(1 0 0 -1 321.687 63.1869)" style="overflow:visible;"/>
	
		<use xlink:href="#New_Symbol_2"  width="2" height="2" x="-1" y="-1" transform="matrix(1 0 0 -1 241.06 283.2863)" style="overflow:visible;"/>
	
		<use xlink:href="#New_Symbol_2"  width="2" height="2" x="-1" y="-1" transform="matrix(1 0 0 -1 525.2392 299.1534)" style="overflow:visible;"/>
	
		<use xlink:href="#New_Symbol_2"  width="2" height="2" x="-1" y="-1" transform="matrix(1 0 0 -1 466.3799 94.0511)" style="overflow:visible;"/>
	
		<use xlink:href="#New_Symbol_2"  width="2" height="2" x="-1" y="-1" transform="matrix(1 0 0 -1 344.2549 306.3038)" style="overflow:visible;"/>
	
		<use xlink:href="#New_Symbol_2"  width="2" height="2" x="-1" y="-1" transform="matrix(1 0 0 -1 438.9738 194.3987)" style="overflow:visible;"/>
	
		<use xlink:href="#New_Symbol_2"  width="2" height="2" x="-1" y="-1" transform="matrix(1 0 0 -1 296.8682 19.0671)" style="overflow:visible;"/>
	
		<use xlink:href="#New_Symbol_2"  width="2" height="2" x="-1" y="-1" transform="matrix(1 0 0 -1 317.8312 365.2074)" style="overflow:visible;"/>
	
		<use xlink:href="#New_Symbol_2"  width="2" height="2" x="-1" y="-1" transform="matrix(1 0 0 -1 741.4063 239.7552)" style="overflow:visible;"/>
	
		<use xlink:href="#New_Symbol_2"  width="2" height="2" x="-1" y="-1" transform="matrix(1 0 0 -1 432.9543 36.792)" style="overflow:visible;"/>
	
		<use xlink:href="#New_Symbol_2"  width="2" height="2" x="-1" y="-1" transform="matrix(1 0 0 -1 131.0043 243.5102)" style="overflow:visible;"/>
	
		<use xlink:href="#New_Symbol_2"  width="2" height="2" x="-1" y="-1" transform="matrix(1 0 0 -1 306.4094 256.0921)" style="overflow:visible;"/>
	
		<use xlink:href="#New_Symbol_2"  width="2" height="2" x="-1" y="-1" transform="matrix(1 0 0 -1 289.3605 48.0564)" style="overflow:visible;"/>
	
		<use xlink:href="#New_Symbol_2"  width="2" height="2" x="-1" y="-1" transform="matrix(1 0 0 -1 14.1998 150.579)" style="overflow:visible;"/>
	
		<use xlink:href="#New_Symbol_2"  width="2" height="2" x="-1" y="-1" transform="matrix(1 0 0 -1 326.6151 434.4305)" style="overflow:visible;"/>
	
		<use xlink:href="#New_Symbol_2"  width="2" height="2" x="-1" y="-1" transform="matrix(1 0 0 -1 456.9518 126.1302)" style="overflow:visible;"/>
	
		<use xlink:href="#New_Symbol_2"  width="2" height="2" x="-1" y="-1" transform="matrix(1 0 0 -1 206.6048 79.8143)" style="overflow:visible;"/>
	
		<use xlink:href="#New_Symbol_2"  width="2" height="2" x="-1" y="-1" transform="matrix(1 0 0 -1 220.0094 418.164)" style="overflow:visible;"/>
	
		<use xlink:href="#New_Symbol_2"  width="2" height="2" x="-1" y="-1" transform="matrix(1 0 0 -1 569.03 218.1657)" style="overflow:visible;"/>
	
		<use xlink:href="#New_Symbol_2"  width="2" height="2" x="-1" y="-1" transform="matrix(1 0 0 -1 426.5946 82.2324)" style="overflow:visible;"/>
	
		<use xlink:href="#New_Symbol_2"  width="2" height="2" x="-1" y="-1" transform="matrix(1 0 0 -1 -72.6784 415.6194)" style="overflow:visible;"/>
	
		<use xlink:href="#New_Symbol_2"  width="2" height="2" x="-1" y="-1" transform="matrix(1 0 0 -1 315.1751 445.7708)" style="overflow:visible;"/>
	
		<use xlink:href="#New_Symbol_2"  width="2" height="2" x="-1" y="-1" transform="matrix(1 0 0 -1 521.8492 150.0803)" style="overflow:visible;"/>
	
		<use xlink:href="#New_Symbol_2"  width="2" height="2" x="-1" y="-1" transform="matrix(1 0 0 -1 286.306 210.1888)" style="overflow:visible;"/>
	
		<use xlink:href="#New_Symbol_2"  width="2" height="2" x="-1" y="-1" transform="matrix(1 0 0 -1 289.6054 283.8303)" style="overflow:visible;"/>
	
		<use xlink:href="#New_Symbol_2"  width="2" height="2" x="-1" y="-1" transform="matrix(1 0 0 -1 416.48 258.1765)" style="overflow:visible;"/>
	
		<use xlink:href="#New_Symbol_2"  width="2" height="2" x="-1" y="-1" transform="matrix(1 0 0 -1 414.6451 217.1776)" style="overflow:visible;"/>
	
		<use xlink:href="#New_Symbol_2"  width="2" height="2" x="-1" y="-1" transform="matrix(1 0 0 -1 331.3541 366.9308)" style="overflow:visible;"/>
	
		<use xlink:href="#New_Symbol_2"  width="2" height="2" x="-1" y="-1" transform="matrix(1 0 0 -1 475.4156 393.9826)" style="overflow:visible;"/>
	
		<use xlink:href="#New_Symbol_2"  width="2" height="2" x="-1" y="-1" transform="matrix(1 0 0 -1 509.7124 222.1588)" style="overflow:visible;"/>
	
		<use xlink:href="#New_Symbol_2"  width="2" height="2" x="-1" y="-1" transform="matrix(1 0 0 -1 539.7891 200.7387)" style="overflow:visible;"/>
	
		<use xlink:href="#New_Symbol_2"  width="2" height="2" x="-1" y="-1" transform="matrix(1 0 0 -1 620.9913 176.3636)" style="overflow:visible;"/>
	
		<use xlink:href="#New_Symbol_2"  width="2" height="2" x="-1" y="-1" transform="matrix(1 0 0 -1 576.1456 189.1276)" style="overflow:visible;"/>
	
		<use xlink:href="#New_Symbol_2"  width="2" height="2" x="-1" y="-1" transform="matrix(1 0 0 -1 62.0391 316.1084)" style="overflow:visible;"/>
	
		<use xlink:href="#New_Symbol_2"  width="2" height="2" x="-1" y="-1" transform="matrix(1 0 0 -1 33.2405 354.0705)" style="overflow:visible;"/>
	
		<use xlink:href="#New_Symbol_2"  width="2" height="2" x="-1" y="-1" transform="matrix(1 0 0 -1 57.9204 368.1057)" style="overflow:visible;"/>
	
		<use xlink:href="#New_Symbol_2"  width="2" height="2" x="-1" y="-1" transform="matrix(1 0 0 -1 330.7009 236.2056)" style="overflow:visible;"/>
	
		<use xlink:href="#New_Symbol_2"  width="2" height="2" x="-1" y="-1" transform="matrix(1 0 0 -1 464.6525 167.0681)" style="overflow:visible;"/>
	
		<use xlink:href="#New_Symbol_2"  width="2" height="2" x="-1" y="-1" transform="matrix(1 0 0 -1 577.6201 147.7425)" style="overflow:visible;"/>
	
		<use xlink:href="#New_Symbol_2"  width="2" height="2" x="-1" y="-1" transform="matrix(1 0 0 -1 587.4796 161.9217)" style="overflow:visible;"/>
	
		<use xlink:href="#New_Symbol_2"  width="2" height="2" x="-1" y="-1" transform="matrix(1 0 0 -1 586.0022 177.9845)" style="overflow:visible;"/>
	
		<use xlink:href="#New_Symbol_2"  width="2" height="2" x="-1" y="-1" transform="matrix(1 0 0 -1 274.0341 252.7705)" style="overflow:visible;"/>
	
		<use xlink:href="#New_Symbol_2"  width="2" height="2" x="-1" y="-1" transform="matrix(1 0 0 -1 176.6866 276.7833)" style="overflow:visible;"/>
	
		<use xlink:href="#New_Symbol_2"  width="2" height="2" x="-1" y="-1" transform="matrix(1 0 0 -1 156.4344 287.8096)" style="overflow:visible;"/>
</g>
</svg>
