<?xml version="1.0" encoding="iso-8859-1"?>
<!-- Generator: Adobe Illustrator 17.0.0, SVG Export Plug-In . SVG Version: 6.00 Build 0)  -->
<!DOCTYPE svg PUBLIC "-//W3C//DTD SVG 1.1//EN" "http://www.w3.org/Graphics/SVG/1.1/DTD/svg11.dtd">
<svg version="1.1" xmlns="http://www.w3.org/2000/svg" xmlns:xlink="http://www.w3.org/1999/xlink" x="0px" y="0px"
	 width="796.499px" height="489.125px" viewBox="0 0 796.499 489.125" style="enable-background:new 0 0 796.499 489.125;"
	 xml:space="preserve">
<symbol  id="New_Symbol_2" viewBox="-1 -1 2 2">
	<path style="fill:#FFFFFF;" d="M1,0c0-0.552-0.448-1-1-1s-1,0.448-1,1s0.448,1,1,1S1,0.552,1,0z"/>
</symbol>
<g id="topstars">
	<g>
		
			<use xlink:href="#New_Symbol_2"  width="2" height="2" x="-1" y="-1" transform="matrix(0.8913 0 0 -0.8913 131.0519 284.5655)" style="overflow:visible;"/>
		
			<use xlink:href="#New_Symbol_2"  width="2" height="2" x="-1" y="-1" transform="matrix(1.0201 0 0 -1.0201 130.6021 351.8041)" style="overflow:visible;"/>
		
			<use xlink:href="#New_Symbol_2"  width="2" height="2" x="-1" y="-1" transform="matrix(0.8787 0 0 -0.8787 290.4317 239.421)" style="overflow:visible;"/>
		
			<use xlink:href="#New_Symbol_2"  width="2" height="2" x="-1" y="-1" transform="matrix(0.8892 0 0 -0.8892 204.1205 323.0204)" style="overflow:visible;"/>
		
			<use xlink:href="#New_Symbol_2"  width="2" height="2" x="-1" y="-1" transform="matrix(0.8787 0 0 -0.8787 308.7794 244.056)" style="overflow:visible;"/>
		
			<use xlink:href="#New_Symbol_2"  width="2" height="2" x="-1" y="-1" transform="matrix(0.8787 0 0 -0.8787 283.7719 287.5882)" style="overflow:visible;"/>
		
			<use xlink:href="#New_Symbol_2"  width="2" height="2" x="-1" y="-1" transform="matrix(0.8787 0 0 -0.8787 270.0872 216.0691)" style="overflow:visible;"/>
		
			<use xlink:href="#New_Symbol_2"  width="2" height="2" x="-1" y="-1" transform="matrix(0.8861 0 0 -0.8861 215.0758 344.7265)" style="overflow:visible;"/>
		
			<use xlink:href="#New_Symbol_2"  width="2" height="2" x="-1" y="-1" transform="matrix(0.8787 0 0 -0.8787 206.771 296.0387)" style="overflow:visible;"/>
		
			<use xlink:href="#New_Symbol_2"  width="2" height="2" x="-1" y="-1" transform="matrix(0.8787 0 0 -0.8787 328.4863 326.6526)" style="overflow:visible;"/>
		
			<use xlink:href="#New_Symbol_2"  width="2" height="2" x="-1" y="-1" transform="matrix(0.8787 0 0 -0.8787 359.0865 190.3845)" style="overflow:visible;"/>
		
			<use xlink:href="#New_Symbol_2"  width="2" height="2" x="-1" y="-1" transform="matrix(0.8787 0 0 -0.8787 350.2071 313.0617)" style="overflow:visible;"/>
		
			<use xlink:href="#New_Symbol_2"  width="2" height="2" x="-1" y="-1" transform="matrix(0.8787 0 0 -0.8787 393.4747 165.7834)" style="overflow:visible;"/>
		
			<use xlink:href="#New_Symbol_2"  width="2" height="2" x="-1" y="-1" transform="matrix(0.8787 0 0 -0.8787 349.2289 351.6821)" style="overflow:visible;"/>
		
			<use xlink:href="#New_Symbol_2"  width="2" height="2" x="-1" y="-1" transform="matrix(0.8787 0 0 -0.8787 498.4052 105.0189)" style="overflow:visible;"/>
		
			<use xlink:href="#New_Symbol_2"  width="2" height="2" x="-1" y="-1" transform="matrix(0.8787 0 0 -0.8787 323.3626 387.9148)" style="overflow:visible;"/>
		
			<use xlink:href="#New_Symbol_2"  width="2" height="2" x="-1" y="-1" transform="matrix(0.8827 0 0 -0.8827 516.7571 199.6934)" style="overflow:visible;"/>
		
			<use xlink:href="#New_Symbol_2"  width="2" height="2" x="-1" y="-1" transform="matrix(0.8787 0 0 -0.8787 438.6754 296.4015)" style="overflow:visible;"/>
		
			<use xlink:href="#New_Symbol_2"  width="2" height="2" x="-1" y="-1" transform="matrix(1.1942 0 0 -1.1942 572.3549 189.9703)" style="overflow:visible;"/>
		
			<use xlink:href="#New_Symbol_2"  width="2" height="2" x="-1" y="-1" transform="matrix(0.8838 0 0 -0.8838 513.6 216.3595)" style="overflow:visible;"/>
		
			<use xlink:href="#New_Symbol_2"  width="2" height="2" x="-1" y="-1" transform="matrix(1.2261 0 0 -1.2261 657.0947 223.0311)" style="overflow:visible;"/>
		
			<use xlink:href="#New_Symbol_2"  width="2" height="2" x="-1" y="-1" transform="matrix(1.4194 0 0 -1.4194 609.66 245.8044)" style="overflow:visible;"/>
		
			<use xlink:href="#New_Symbol_2"  width="2" height="2" x="-1" y="-1" transform="matrix(1.159 0 0 -1.159 659.926 196.7245)" style="overflow:visible;"/>
		
			<use xlink:href="#New_Symbol_2"  width="2" height="2" x="-1" y="-1" transform="matrix(1.5222 0 0 -1.5222 595.8359 214.0258)" style="overflow:visible;"/>
		
			<use xlink:href="#New_Symbol_2"  width="2" height="2" x="-1" y="-1" transform="matrix(0.8787 0 0 -0.8787 677.0491 122.9424)" style="overflow:visible;"/>
		
			<use xlink:href="#New_Symbol_2"  width="2" height="2" x="-1" y="-1" transform="matrix(1.0792 0 0 -1.0792 651.1443 171.5347)" style="overflow:visible;"/>
		
			<use xlink:href="#New_Symbol_2"  width="2" height="2" x="-1" y="-1" transform="matrix(0.8787 0 0 -0.8787 673.502 56.5085)" style="overflow:visible;"/>
		
			<use xlink:href="#New_Symbol_2"  width="2" height="2" x="-1" y="-1" transform="matrix(0.8787 0 0 -0.8787 678.2735 96.4305)" style="overflow:visible;"/>
		
			<use xlink:href="#New_Symbol_2"  width="2" height="2" x="-1" y="-1" transform="matrix(0.8787 0 0 -0.8787 609.7717 0.8787)" style="overflow:visible;"/>
		
			<use xlink:href="#New_Symbol_2"  width="2" height="2" x="-1" y="-1" transform="matrix(0.8787 0 0 -0.8787 717.189 68.5027)" style="overflow:visible;"/>
		
			<use xlink:href="#New_Symbol_2"  width="2" height="2" x="-1" y="-1" transform="matrix(0.8787 0 0 -0.8787 765.5411 5.7059)" style="overflow:visible;"/>
		
			<use xlink:href="#New_Symbol_2"  width="2" height="2" x="-1" y="-1" transform="matrix(0.8787 0 0 -0.8787 795.6199 92.5658)" style="overflow:visible;"/>
		
			<use xlink:href="#New_Symbol_2"  width="2" height="2" x="-1" y="-1" transform="matrix(0.8787 0 0 -0.8787 721.5466 93.3249)" style="overflow:visible;"/>
		
			<use xlink:href="#New_Symbol_2"  width="2" height="2" x="-1" y="-1" transform="matrix(1.1661 0 0 -1.1661 594.4255 170.8084)" style="overflow:visible;"/>
		
			<use xlink:href="#New_Symbol_2"  width="2" height="2" x="-1" y="-1" transform="matrix(0.9276 0 0 -0.9276 546.5715 169.517)" style="overflow:visible;"/>
		
			<use xlink:href="#New_Symbol_2"  width="2" height="2" x="-1" y="-1" transform="matrix(0.8787 0 0 -0.8787 545.6954 106.5303)" style="overflow:visible;"/>
		
			<use xlink:href="#New_Symbol_2"  width="2" height="2" x="-1" y="-1" transform="matrix(0.8787 0 0 -0.8787 360.2854 201.4752)" style="overflow:visible;"/>
		
			<use xlink:href="#New_Symbol_2"  width="2" height="2" x="-1" y="-1" transform="matrix(0.8787 0 0 -0.8787 380.2937 171.3238)" style="overflow:visible;"/>
		
			<use xlink:href="#New_Symbol_2"  width="2" height="2" x="-1" y="-1" transform="matrix(0.8787 0 0 -0.8787 249.3391 299.9776)" style="overflow:visible;"/>
		
			<use xlink:href="#New_Symbol_2"  width="2" height="2" x="-1" y="-1" transform="matrix(0.8787 0 0 -0.8787 213.8165 254.2488)" style="overflow:visible;"/>
		
			<use xlink:href="#New_Symbol_2"  width="2" height="2" x="-1" y="-1" transform="matrix(1.0141 0 0 -1.0141 116.9676 367.4097)" style="overflow:visible;"/>
		
			<use xlink:href="#New_Symbol_2"  width="2" height="2" x="-1" y="-1" transform="matrix(0.8787 0 0 -0.8787 131.2237 218.2139)" style="overflow:visible;"/>
		
			<use xlink:href="#New_Symbol_2"  width="2" height="2" x="-1" y="-1" transform="matrix(0.8884 0 0 -0.8884 52.0971 354.5571)" style="overflow:visible;"/>
		
			<use xlink:href="#New_Symbol_2"  width="2" height="2" x="-1" y="-1" transform="matrix(0.8787 0 0 -0.8787 86.2522 191.7947)" style="overflow:visible;"/>
		
			<use xlink:href="#New_Symbol_2"  width="2" height="2" x="-1" y="-1" transform="matrix(0.8787 0 0 -0.8787 0.8787 329.9063)" style="overflow:visible;"/>
		
			<use xlink:href="#New_Symbol_2"  width="2" height="2" x="-1" y="-1" transform="matrix(0.8787 0 0 -0.8787 1.8353 342.6054)" style="overflow:visible;"/>
		
			<use xlink:href="#New_Symbol_2"  width="2" height="2" x="-1" y="-1" transform="matrix(0.8787 0 0 -0.8787 462.5141 327.9562)" style="overflow:visible;"/>
		
			<use xlink:href="#New_Symbol_2"  width="2" height="2" x="-1" y="-1" transform="matrix(0.8787 0 0 -0.8787 545.1396 337.4149)" style="overflow:visible;"/>
		
			<use xlink:href="#New_Symbol_2"  width="2" height="2" x="-1" y="-1" transform="matrix(0.8787 0 0 -0.8787 529.1473 396.8683)" style="overflow:visible;"/>
		
			<use xlink:href="#New_Symbol_2"  width="2" height="2" x="-1" y="-1" transform="matrix(0.8787 0 0 -0.8787 590.2449 355.7911)" style="overflow:visible;"/>
		
			<use xlink:href="#New_Symbol_2"  width="2" height="2" x="-1" y="-1" transform="matrix(0.8787 0 0 -0.8787 579.5027 403.1591)" style="overflow:visible;"/>
		
			<use xlink:href="#New_Symbol_2"  width="2" height="2" x="-1" y="-1" transform="matrix(0.8787 0 0 -0.8787 613.5092 396.0236)" style="overflow:visible;"/>
		
			<use xlink:href="#New_Symbol_2"  width="2" height="2" x="-1" y="-1" transform="matrix(0.8787 0 0 -0.8787 708.8467 380.4233)" style="overflow:visible;"/>
		
			<use xlink:href="#New_Symbol_2"  width="2" height="2" x="-1" y="-1" transform="matrix(0.8787 0 0 -0.8787 616.3773 366.4002)" style="overflow:visible;"/>
		
			<use xlink:href="#New_Symbol_2"  width="2" height="2" x="-1" y="-1" transform="matrix(0.8787 0 0 -0.8787 657.3056 441.6079)" style="overflow:visible;"/>
		
			<use xlink:href="#New_Symbol_2"  width="2" height="2" x="-1" y="-1" transform="matrix(0.8787 0 0 -0.8787 700.6852 453.6961)" style="overflow:visible;"/>
		
			<use xlink:href="#New_Symbol_2"  width="2" height="2" x="-1" y="-1" transform="matrix(0.8787 0 0 -0.8787 717.3743 488.2466)" style="overflow:visible;"/>
	</g>
</g>
<g id="Layer_1">
</g>
</svg>
