<?xml version="1.0" encoding="iso-8859-1"?>
<!-- Generator: Adobe Illustrator 17.0.0, SVG Export Plug-In . SVG Version: 6.00 Build 0)  -->
<!DOCTYPE svg PUBLIC "-//W3C//DTD SVG 1.1//EN" "http://www.w3.org/Graphics/SVG/1.1/DTD/svg11.dtd">
<svg version="1.1" id="Layer_1" xmlns="http://www.w3.org/2000/svg" xmlns:xlink="http://www.w3.org/1999/xlink" x="0px" y="0px"
	 width="282.236px" height="106.442px" viewBox="0 0 282.236 106.442" style="enable-background:new 0 0 282.236 106.442;"
	 xml:space="preserve">
<rect y="0" width="282.236" height="73.511"/>
<polygon style="fill:#F16C5B;" points="61.064,106.442 58.493,85.096 61.064,73.218 93.996,40.497 97.118,57.596 93.996,73.511 "/>
<polygon style="fill:#F16C5B;" points="192.79,106.442 189.368,88.971 192.79,73.218 225.721,40.497 229.868,59.471 225.721,73.511 
	"/>
<polygon style="fill:#E71E26;" points="61.064,106.442 61.064,88.596 61.064,73.47 28.133,40.497 28.133,73.511 "/>
<polygon style="fill:#E71E26;" points="192.79,106.442 192.79,89.346 192.79,73.47 159.859,40.497 154.868,58.721 159.859,73.511 
	"/>
<polygon style="fill:#E71E26;" points="258.653,106.442 258.653,73.47 225.721,40.497 225.721,58.596 225.721,73.511 "/>
<polygon style="fill:#F16C5B;" points="126.927,106.442 122.493,88.971 126.927,73.218 159.859,40.497 159.859,58.971 
	159.859,73.511 "/>
<polygon style="fill:#E71E26;" points="126.927,106.442 126.927,73.47 93.996,40.497 93.996,59.971 93.996,73.511 "/>
<g id="Layer_1_1_">
</g>
</svg>
