<?xml version="1.0" encoding="iso-8859-1"?>
<!-- Generator: Adobe Illustrator 17.0.0, SVG Export Plug-In . SVG Version: 6.00 Build 0)  -->
<!DOCTYPE svg PUBLIC "-//W3C//DTD SVG 1.1//EN" "http://www.w3.org/Graphics/SVG/1.1/DTD/svg11.dtd">
<svg version="1.1" xmlns="http://www.w3.org/2000/svg" xmlns:xlink="http://www.w3.org/1999/xlink" x="0px" y="0px"
	 width="132.845px" height="190.415px" viewBox="0 0 132.845 190.415" style="enable-background:new 0 0 132.845 190.415;"
	 xml:space="preserve">
<g id="left-leg">
	<path style="fill:#FFFFFF;" d="M132.845,35.782L111.541,0c0,0-8.28,21.744-18.465,35.466c-2.731,3.679-7.409,15.624-12.414,28.524
		l20.45,14.943C115.247,58.866,132.845,35.782,132.845,35.782z"/>
	<path style="fill:#702B95;" d="M26.859,163.914c-3.459,3.806-6.282,7.356-9.239,10.746c1.793-2.194,3.724-4.6,6.281-7.414
		L9.722,182.633c-2.568,2.211-5.493,4.38-9.064,6.531c-1.54,0.928-0.171,1.455,1.962,1.177c5.479-0.716,15.861-4.715,19.589-7.72
		c3.767-3.037,13.444-2.686,15.665-6.211c1.015-1.611-1.348-4.753,2.777-9.46c31.383-35.811,43.109-50.694,43.692-58.183
		c0.08-1.021,0.661-5.24,2.813-8.868c3.197-5.39,8.299-12.937,13.955-20.966L80.662,63.99c-4.82,12.421-9.943,25.728-13.925,33.401
		C60.039,110.295,40.378,146.07,26.859,163.914z"/>
	<path style="fill:#702B95;" d="M80.662,63.99c0,0,11.605,7.412,20.45,14.943L90.394,78.37l-9.094-10.094L80.662,63.99z"/>
</g>
<g id="Layer_1">
</g>
</svg>
