<?xml version="1.0" encoding="iso-8859-1"?>
<!-- Generator: Adobe Illustrator 17.0.0, SVG Export Plug-In . SVG Version: 6.00 Build 0)  -->
<!DOCTYPE svg PUBLIC "-//W3C//DTD SVG 1.1//EN" "http://www.w3.org/Graphics/SVG/1.1/DTD/svg11.dtd">
<svg version="1.1" id="Layer_1" xmlns="http://www.w3.org/2000/svg" xmlns:xlink="http://www.w3.org/1999/xlink" x="0px" y="0px"
	 width="313.94px" height="313.94px" viewBox="0 0 313.94 313.94" style="enable-background:new 0 0 313.94 313.94;"
	 xml:space="preserve">
<circle cx="156.97" cy="156.594" r="153.884"/>
<path style="fill:none;" d="M138.831,13.504v-0.14c7.074,0,12.841-4.715,13.244-10.655c-28.097,0.88-54.322,9.306-76.717,23.315
	l6.718,6.726C99.068,22.636,118.297,15.909,138.831,13.504z"/>
<path style="fill:none;" d="M17.322,115.611c2.807-9.377,6.539-18.358,11.096-26.834L11.33,105.865
	c-0.326,0.927-0.645,1.857-0.954,2.791L17.322,115.611z"/>
<path style="fill:#D59229;" d="M156.543,12.51c-0.003,0.004-0.006,0.007-0.009,0.01c0.006,0,0.012,0,0.019,0
	C156.549,12.516,156.545,12.513,156.543,12.51z"/>
<path style="fill:#F16C5B;" d="M311.16,163.71c0.097-2.236,0.516-3.3,0.831-5.537c1.99-14.146-1.136-34.833-7.509-46.661
	l-1.872,19.786l1.872,25.733L311.16,163.71z"/>
<path style="fill:none;" d="M138.831,217.071c7.336,0,13.283-5.066,13.283-11.316c0-6.249-5.947-11.315-13.283-11.315v-6.377
	l-31.032-31.032l-31.941,31.941v5.468c-2.728,0-5.263,0.703-7.372,1.904L63.8,201.03c-0.779,1.439-1.225,3.036-1.225,4.725
	c0,6.249,5.947,11.316,13.283,11.316v6.381l31.941,31.981v-0.376l31.14-30.94c-0.037,0-0.071,0.006-0.108,0.006V217.071z"/>
<path style="fill:none;" d="M237.227,217.071c7.336,0,13.283-5.066,13.283-11.316c0-6.249-5.947-11.315-13.283-11.315v-6.322
	l-31.087-31.087l-31.886,31.886v5.523c-2.786,0-5.369,0.733-7.505,1.982l-4.482,4.482c-0.823,1.472-1.296,3.112-1.296,4.851
	c0,6.249,5.947,11.316,13.283,11.316v6.436l31.886,31.926v-0.376l31.136-30.937c-0.017,0-0.033,0.003-0.05,0.003v-7.052H237.227z"/>
<path style="fill:none;" d="M188.685,125.081v-5.744c3.125,0,5.993-0.925,8.261-2.464l3.27-3.249
	c1.109-1.653,1.752-3.562,1.752-5.602c0-6.249-5.947-11.315-13.283-11.315v-6.423L156.97,58.567l-31.258,31.258v6.881
	c-7.336,0-13.283,5.066-13.283,11.315s5.947,11.315,13.283,11.315v6.336l31.258,31.297v37.862l0,0v-38.238L188.685,125.081z"/>
<path style="fill:#D59229;" d="M101.688,113.81l-2.985,2.965C99.891,115.946,100.896,114.939,101.688,113.81z"/>
<path style="fill:#D59229;" d="M260.734,200.779l4.26-4.26C263.186,197.608,261.718,199.072,260.734,200.779z"/>
<path style="fill:#D59229;" d="M200.216,113.624l-3.27,3.249C198.265,115.979,199.376,114.877,200.216,113.624z"/>
<path style="fill:#D59229;" d="M162.267,200.905l4.482-4.482C164.826,197.547,163.278,199.095,162.267,200.905z"/>
<g>
	<path style="fill:#E71E26;" d="M9.458,111.512c-4.675,10.661-8.341,28.126-8.341,43.941c0,2.259,1.566,6.021,1.663,8.257
		l8.551-8.162L9.458,111.512z"/>
	<path style="fill:#E71E26;" d="M11.331,105.866l17.088-17.088l30.21-30.21l2.405-8.394l-2.405-12.075
		C37.784,53.006,19.398,77.173,11.331,105.866z"/>
	<path style="fill:#E71E26;" d="M125.712,89.654v0.171l31.258-31.258l1.778-42.019c-0.135-0.154-2.067-3.87-2.196-4.028
		c-0.006,0-0.012,0-0.019,0c-2.306,2.823-5.528,5.049-9.285,6.413L107.799,58.13l-2.516,3.553l2.516,35.659
		c0.063,0.075-0.061,2.088,0.001,2.164c2.105-2.582,5.223-5.781,8.566-7.167C119.207,91.162,122.34,89.654,125.712,89.654z"/>
	<path style="fill:#E71E26;" d="M75.858,187.389v1.584l31.941-31.941l4.629-19.42l-4.629-22
		c-3.912,4.647-10.285,10.777-17.51,10.777v-1.253l-31.661,31.458v0.376l-1.845,40.703
		C60.716,193.203,68.797,187.389,75.858,187.389z"/>
	<path style="fill:#E71E26;" d="M58.147,211.673c-3.864,4.738-10.273,12.394-17.546,12.441l-8.135,8.083l-7.475,7.434
		c6.261,10.008,13.644,19.241,21.959,27.543l7.403-7.403l4.276-4.275l1.155-10.197l-1.155-28.559
		C58.473,216.561,58.296,211.855,58.147,211.673z"/>
	<path style="fill:#E71E26;" d="M156.543,213.673c-3.874,4.751-10.307,10.413-17.604,10.444l-31.14,30.94v0.376l-2.891,36.114
		l2.436,12.958c0.346,0.117,1.15-0.997,1.497-0.883l7.629-7.628l40.499-40.499l3.314-16.072l-3.314-22.744
		C156.832,216.522,156.674,213.835,156.543,213.673z"/>
	<path style="fill:#E71E26;" d="M238.502,25.975l-7.675,7.626L206.14,58.13l-2.107,2.168l2.107,36.985
		c0.081,0.096,5.259,3.04,3.518,1.095c3.894-4.775,7.107-8.724,14.449-8.724v0.116l31.203-31.203l1.015-6.186V37.34
		C251.011,32.936,244.117,27.673,238.502,25.975z"/>
	<path style="fill:#E71E26;" d="M303.561,108.652l-8.855,8.799l-39.395,39.143v0.376l-2.652,19.578l2.28,21.125
		c3.925-4.538,10.586-10.284,17.711-10.284v1.474l27.476-27.477l4.355-4.355v-45.519
		C304.185,110.554,303.875,109.602,303.561,108.652z"/>
	<path style="fill:#E71E26;" d="M188.685,126.389v-1.307l-31.715,31.513l-3.811,12.329l3.811,25.909
		c5.297-1.863,6.074-4.196,13.167-4.196l4.117-1.718l31.886-31.886l3.518-17.233l-3.518-24.187
		C202.224,120.223,195.878,126.389,188.685,126.389z"/>
	<path style="fill:#E71E26;" d="M254.938,212.84c-3.885,4.764-10.34,11.266-17.662,11.281l-31.136,30.937v0.376l-2.607,34.489
		l2.607,14.833c0.711-0.24,1.417-1.965,2.124-2.214l21.689-21.689l25.358-25.358l3.848-21.697l-3.848-17.178
		C255.191,216.482,255.053,212.981,254.938,212.84z"/>
</g>
<path style="fill:#F16C5B;" d="M82.076,32.75l-6.718-6.726c-5.848,3.658-11.439,7.69-16.73,12.074V50.11v8.457L90.29,90.228v-0.574
	c7.225,0,13.598,5.206,17.51,9.852v-41L82.076,32.75z"/>
<path style="fill:#F16C5B;" d="M188.685,90.283v-0.628c7.193,0,13.539,7.036,17.455,11.648V58.506l-39.13-39.18
	c-4.047-1.235-7.522-3.467-10.04-6.354v2.45v43.144L188.685,90.283z"/>
<path style="fill:#F16C5B;" d="M17.322,115.611l-6.946-6.954c-0.313,0.948-0.623,1.899-0.918,2.855v45.519l1.845,1.845
	l29.132,29.132v-0.62c7.342,0,12.455,5.51,16.348,10.285c0.149-0.182,1.689-2.723,1.845-2.901V156.97L17.322,115.611z"/>
<path style="fill:#F16C5B;" d="M125.712,125.673v0.716c-7.342,0-17.849-10.853-17.913-10.777v41.42l31.032,31.032v-0.675
	c5.806,2.914,12.913,5.509,16.806,10.284c0.132-0.162,1.195-2.682,1.332-2.84V156.97L125.712,125.673z"/>
<path style="fill:#F16C5B;" d="M75.858,223.452v0.671c-7.062,0-13.297-6.814-17.229-11.283v42.655l28.649,28.649l18.398,18.398
	c0.707,0.25,1.412,1.313,2.123,1.553v-10.86v-37.801L75.858,223.452z"/>
<path style="fill:#F16C5B;" d="M174.254,223.507v0.616c-7.093,0-13.355-5.946-17.284-10.45v41.822l39.945,39.945l8.183,8.183
	c0.347-0.114,0.697,1.009,1.043,0.892v-12.168v-36.913L174.254,223.507z"/>
<path style="fill:#F16C5B;" d="M255.311,38.099V52.4v6.167l24.519,24.519l22.78,22.78C296.784,80.34,274.45,49.173,255.311,38.099z"
	/>
<path style="fill:#F16C5B;" d="M206.396,114.673c-0.079,0.097-0.175,3.991-0.256,4.086v38.272l31.087,31.087v-0.729
	c7.342,0,13.818,5.51,17.711,10.284c0.115-0.141,0.253-2.644,0.372-2.782V156.97l-31.203-31.242v0.661
	C216.766,126.389,210.29,119.448,206.396,114.673z"/>
<path style="fill:#F16C5B;" d="M279.867,230.789l-7.218-7.227v0.561c-7.125,0-13.413-5.912-17.339-10.45v21.25v20.572l3.042,3.042
	l7.612,7.612c9.153-7.501,17.738-16.669,21.849-27.404L279.867,230.789z"/>
<path style="fill:#FFFFFF;" d="M108.001,97.561c-0.062-0.076-0.138-0.143-0.201-0.218c-3.912-4.647-10.285-7.688-17.51-7.688v0.574
	v6.478c7.336,0,13.283,5.066,13.283,11.315c0,2.118-0.696,4.094-1.885,5.789c-0.792,1.129-1.797,2.136-2.985,2.965
	c-2.291,1.6-5.22,2.561-8.414,2.561v5.799v1.253c7.225,0,13.598-3.042,17.51-7.688c0.063-0.075,0.139-0.142,0.201-0.218
	c3.894,4.775,10.369,7.907,17.711,7.907v-0.716v-6.336c-7.336,0-13.283-5.066-13.283-11.315s5.947-11.315,13.283-11.315v-6.881
	v-0.171C118.37,89.654,111.894,92.786,108.001,97.561z"/>
<path style="fill:#FFFFFF;" d="M206.396,97.561c-0.079-0.097-0.175-0.182-0.256-0.278c-3.917-4.612-10.262-7.629-17.455-7.629v0.628
	v6.423c7.336,0,13.283,5.066,13.283,11.315c0,2.04-0.643,3.949-1.752,5.602c-0.841,1.253-1.952,2.355-3.27,3.249
	c-2.269,1.539-5.136,2.464-8.261,2.464v5.744v1.307c7.193,0,13.539-3.017,17.455-7.629c0.081-0.096,0.177-0.181,0.256-0.278
	c3.894,4.775,10.369,7.907,17.711,7.907v-0.661v-6.391c-7.336,0-13.283-5.066-13.283-11.315s5.947-11.315,13.283-11.315V89.77
	v-0.116C216.766,89.654,210.29,92.786,206.396,97.561z"/>
<path style="fill:#FEF5E3;" d="M156.97,12.525c-0.139-0.001-0.278-0.005-0.418-0.005c0.129,0.158,0.283,0.299,0.418,0.453V12.525z"
	/>
<path style="fill:#FFFFFF;" d="M156.97,194.832L156.97,194.832c-0.138,0.158-0.295,0.302-0.427,0.463
	c-3.894-4.775-10.369-7.907-17.711-7.907v0.675v6.377c7.336,0,13.283,5.066,13.283,11.315c0,6.249-5.947,11.316-13.283,11.316v7.052
	c0.037,0,0.071-0.006,0.108-0.006c7.297-0.031,13.729-3.15,17.604-7.901c0.132,0.162,0.29,0.305,0.427,0.463
	c3.929,4.504,10.191,7.444,17.284,7.444v-0.616v-6.436c-7.336,0-13.283-5.066-13.283-11.316c0-1.739,0.474-3.379,1.296-4.851
	c1.011-1.809,2.559-3.358,4.482-4.482c2.136-1.249,4.719-1.982,7.505-1.982v-5.523v-1.529
	C167.16,187.389,160.899,190.328,156.97,194.832z"/>
<path style="fill:#FFFFFF;" d="M255.311,194.891c-0.119,0.138-0.258,0.263-0.373,0.404c-3.894-4.775-10.369-7.907-17.711-7.907
	v0.729v6.322c7.336,0,13.283,5.066,13.283,11.315c0,6.249-5.947,11.316-13.283,11.316v7.052c0.017,0,0.033-0.003,0.05-0.003
	c7.321-0.014,13.777-3.14,17.662-7.904c0.115,0.141,0.253,0.266,0.373,0.404c3.925,4.538,10.213,7.503,17.339,7.503v-0.561v-6.491
	c-7.336,0-13.283-5.066-13.283-11.316c0-1.788,0.5-3.473,1.368-4.977c0.985-1.707,2.452-3.171,4.26-4.26
	c2.165-1.305,4.802-2.078,7.656-2.078v-5.577v-1.474C265.524,187.389,259.236,190.353,255.311,194.891z"/>
<path style="fill:#FFFFFF;" d="M58.629,194.773c-0.156,0.178-0.333,0.34-0.482,0.523c-3.894-4.775-10.369-7.907-17.711-7.907v0.62
	v6.432c7.336,0,13.283,5.066,13.283,11.315c0,6.249-5.947,11.316-13.283,11.316v7.052c0.056,0,0.11-0.008,0.165-0.009
	c7.273-0.047,13.682-3.16,17.546-7.898c0.149,0.182,0.326,0.345,0.482,0.523c3.932,4.47,10.168,7.384,17.229,7.384v-0.671v-6.381
	c-7.336,0-13.283-5.066-13.283-11.316c0-1.689,0.446-3.286,1.225-4.725c1.031-1.906,2.656-3.53,4.686-4.686
	c2.109-1.202,4.644-1.904,7.372-1.904v-5.468v-1.584C68.797,187.389,62.561,190.303,58.629,194.773z"/>
<path style="fill:#FFFFFF;" d="M9.458,107.738v3.774c0.295-0.956,0.605-1.907,0.918-2.855L9.458,107.738z"/>
<g>
	<path style="fill:#FFFFFF;" d="M73.456,24.119c-5.152,3.25-10.101,6.792-14.827,10.602v3.377
		c5.29-4.384,10.881-8.416,16.729-12.074L73.456,24.119z"/>
	<path style="fill:#FFFFFF;" d="M306.768,110.028c-0.363-1.156-0.737-2.307-1.126-3.451c-0.375-1.103-0.763-2.199-1.161-3.291
		c-9.902-27.122-27.087-50.764-49.17-68.564c-4.748-3.827-9.72-7.383-14.897-10.646c-23.075-14.54-50.177-23.248-79.225-24.018
		C159.786,0.021,158.38,0,156.969,0c-1.696,0-3.383,0.037-5.067,0.09C123.146,1.007,96.32,9.694,73.456,24.119l1.902,1.905
		c22.396-14.008,48.62-22.435,76.717-23.315c-0.404,5.94-6.17,10.655-13.244,10.655v0.14v6.912c2.993,0,5.828-0.543,8.417-1.483
		c3.757-1.364,6.979-3.59,9.285-6.413c0.003-0.004,0.006-0.007,0.009-0.01c0.003,0.004,0.007,0.007,0.01,0.01
		c0.139,0.001,0.278,0.004,0.418,0.005v0.447c2.518,2.887,5.993,5.119,10.04,6.354c2.267,0.692,4.697,1.09,7.244,1.09v-6.724v-0.327
		c-7.088,0-12.862-4.732-13.246-10.688c28.389,0.733,54.888,9.177,77.495,23.298c5.877,3.671,11.494,7.72,16.809,12.124
		c21.375,17.714,37.904,41.074,47.298,67.767c0.326,0.925,0.644,1.853,0.952,2.786c0.314,0.95,0.624,1.902,0.92,2.86
		c4.439,14.377,6.835,29.642,6.835,45.457c0,2.259-0.059,4.505-0.156,6.741c-1.187,27.468-9.585,53.094-23.347,75.035
		c-6.24,9.949-13.576,19.145-21.849,27.404c-16.125,16.098-35.788,28.649-57.701,36.393c-0.707,0.25-1.412,0.502-2.124,0.742
		c-0.346,0.117-0.696,0.225-1.043,0.339c-13.565,4.463-27.953,7.092-42.873,7.594c2.116-3.859,6.7-6.539,12.029-6.539v-4.449v-2.602
		c-4.47,0-8.61,1.173-12.051,3.159c-2.21,1.276-4.138,2.88-5.661,4.747c-1.524-1.869-3.454-3.474-5.667-4.751
		c-3.44-1.984-7.577-3.156-12.044-3.156v2.802v4.25c5.314,0,9.887,2.665,12.011,6.506c-14.608-0.573-28.7-3.185-42-7.56
		c-0.347-0.114-0.697-0.223-1.043-0.339c-0.711-0.24-1.417-0.492-2.123-0.742c-21.913-7.744-41.575-20.295-57.701-36.393
		c-8.316-8.302-15.683-17.549-21.944-27.557C12.326,216.685,3.964,191.114,2.78,163.71c-0.097-2.236-0.156-4.481-0.156-6.741
		c0-15.815,2.395-31.08,6.834-45.457v-3.774l0.918,0.919c0.309-0.935,0.628-1.865,0.954-2.791
		c9.394-26.694,25.923-50.053,47.298-67.767v-3.377c-22.084,17.8-39.269,41.442-49.171,68.564c-0.809,2.216-1.568,4.456-2.279,6.717
		C2.518,124.838,0,140.615,0,156.969c0,3.103,0.101,6.182,0.279,9.241c1.586,27.179,10.117,52.521,23.843,74.277
		c6.298,9.983,13.683,19.214,21.998,27.516c27.294,27.249,64.541,44.522,105.749,45.845c1.694,0.054,3.393,0.092,5.1,0.092
		c1.418,0,2.831-0.021,4.241-0.059c41.549-1.108,79.125-18.439,106.609-45.878c8.271-8.257,15.621-17.433,21.897-27.354
		c13.786-21.792,22.355-47.192,23.945-74.439c0.178-3.059,0.279-6.138,0.279-9.241C313.94,140.624,311.425,124.856,306.768,110.028z
		"/>
</g>
<g id="Layer_1_1_">
</g>
</svg>
