<?xml version="1.0" encoding="iso-8859-1"?>
<!-- Generator: Adobe Illustrator 17.0.0, SVG Export Plug-In . SVG Version: 6.00 Build 0)  -->
<!DOCTYPE svg PUBLIC "-//W3C//DTD SVG 1.1//EN" "http://www.w3.org/Graphics/SVG/1.1/DTD/svg11.dtd">
<svg version="1.1" id="Layer_1" xmlns="http://www.w3.org/2000/svg" xmlns:xlink="http://www.w3.org/1999/xlink" x="0px" y="0px"
	 width="95.084px" height="181.249px" viewBox="0 0 95.084 181.249" style="enable-background:new 0 0 95.084 181.249;"
	 xml:space="preserve">
<g id="right-leg">
	<path style="fill:#FFFFFF;" d="M95.084,37.068L79.26,0c0,0-15.551,21.291-22.658,32.945c-1.512,1.588-3.475,5.406-5.641,10.416
		l28.588,12.153C88.031,45.071,95.084,37.068,95.084,37.068z"/>
	<path style="fill:#702B95;" d="M54.482,36.042c0,0,14.291,9.495,25.067,19.471l-7.901,3.149L50.961,45.537l-0.534-0.928
		L54.482,36.042z"/>
	<path style="fill:#702B95;" d="M20.737,154.727c0,0-1.904,5.069-3.57,6.569S0.434,180.659,0.152,180.841
		c-0.631,0.408,0.848,0.411,1.803,0.407c5.526-0.022,15.556-8.121,18.859-10.286c3.075-2.015,9.06-3,11.391-5.242
		c2.161-2.079,0.009-6.647,0.794-8.758c13.302-35.731,17.627-51.058,17.627-55.875c-0.026-2.917,0.5-3.744,1.438-5.963
		c4.157-9.843,16.928-26.616,27.484-39.611L50.961,43.36C44.24,58.9,35.543,85.978,32.141,94.117
		C28.841,102.013,23.606,151.962,20.737,154.727z"/>
</g>
<g id="Layer_1_1_">
</g>
</svg>
